<svg xmlns="http://www.w3.org/2000/svg" viewBox="0 0 50 50" width="50" height="50">
    <path color="#000" overflow="visible" font-family="Bitstream Vera Sans" style="text-transform: none; line-height: normal; text-indent: 0px; block-progression: tb; -inkscape-font-specification: Bitstream Vera Sans;" enable-background="accumulate" d="M 24.8125 0.0625 A 1.0001 1.0001 0 0 0 24.2813 0.375 L 0.375 25.25 A 1.00596 1.00596 0 1 0 1.84375 26.625 L 5 23.3438 L 5 49 L 5 50 L 6 50 L 44 50 L 45 50 L 45 49 L 45 23.3438 L 48.1563 26.625 A 1.00596 1.00596 0 1 0 49.625 25.25 L 25.7188 0.375 A 1.0001 1.0001 0 0 0 24.8125 0.0625 Z M 25 2.5 L 43 21.25 L 43 48 L 32 48 L 32 28 L 32 27 L 31 27 L 19 27 L 18 27 L 18 28 L 18 48 L 7 48 L 7 21.25 L 25 2.5 Z M 35 5 L 35 8.03125 L 37 10.0938 L 37 7 L 39 7 L 39 12.1875 L 41 14.2813 L 41 5 L 35 5 Z M 20 29 L 30 29 L 30 48 L 20 48 L 20 29 Z" />
</svg>